<?xml version="1.0" standalone="no"?>
<!DOCTYPE svg PUBLIC "-//W3C//DTD SVG 20010904//EN"
 "http://www.w3.org/TR/2001/REC-SVG-20010904/DTD/svg10.dtd">
<svg version="1.0" xmlns="http://www.w3.org/2000/svg"
 width="260.000000pt" height="260.000000pt" viewBox="0 0 260.000000 260.000000"
 preserveAspectRatio="xMidYMid meet">
<metadata>
Created by potrace 1.14, written by Peter Selinger 2001-2017
</metadata>
<g transform="translate(0.000000,260.000000) scale(0.100000,-0.100000)"
fill="#000000" stroke="none">
<path d="M2433 2457 c-3 -6 -1 -7 5 -3 7 4 12 1 12 -9 0 -9 -4 -14 -8 -11 -5
3 -9 -1 -9 -9 0 -8 5 -11 10 -8 6 4 8 0 4 -9 -3 -9 -1 -20 5 -26 6 -6 6 -12
-3 -17 -7 -5 -10 -4 -6 2 3 5 0 10 -7 10 -18 0 -9 -25 10 -29 8 -2 4 -7 -11
-15 -14 -6 -23 -7 -19 -2 8 13 -10 11 -25 -3 -11 -11 -11 -9 0 9 11 18 16 20
29 10 13 -11 13 -10 0 7 -14 18 -15 18 -28 -3 -11 -16 -18 -18 -33 -10 -10 5
-20 8 -20 7 -6 -13 -3 -78 3 -78 4 0 8 -5 8 -11 0 -8 -4 -9 -13 0 -8 6 -18 7
-23 3 -4 -4 -3 0 4 9 10 14 10 18 -3 23 -10 4 -14 2 -9 -5 4 -6 0 -15 -7 -20
-9 -5 -10 -9 -2 -9 6 0 9 -8 6 -19 -3 -13 -11 -18 -21 -15 -14 5 -14 4 1 -6 9
-6 17 -19 16 -28 0 -14 -2 -14 -8 3 -6 16 -9 17 -17 5 -5 -8 -17 -16 -27 -16
-14 -2 -15 1 -6 12 6 8 15 11 20 8 5 -3 6 2 3 11 -6 14 -8 14 -18 1 -6 -9 -20
-23 -31 -32 -11 -8 -14 -13 -8 -9 8 4 11 1 7 -9 -3 -8 -12 -12 -19 -10 -7 3
-16 0 -21 -7 -4 -8 -3 -10 4 -5 7 4 12 2 12 -4 0 -6 5 -8 12 -4 7 4 8 3 4 -5
-4 -6 -12 -9 -17 -6 -5 4 -9 0 -9 -7 0 -10 -3 -9 -11 2 -11 16 -10 10 8 -37 4
-12 -1 -10 -15 6 -12 13 -22 20 -22 15 0 -6 5 -15 12 -22 7 -7 8 -12 4 -12 -5
0 -3 -7 4 -15 10 -13 11 -18 1 -28 -7 -7 -12 -7 -11 -2 5 22 -1 31 -20 32 -13
1 -18 -2 -14 -9 4 -7 2 -8 -5 -4 -15 10 -3 29 15 22 7 -3 16 0 20 6 4 7 3 8
-4 4 -7 -4 -12 -2 -12 5 0 8 -5 7 -17 -3 -10 -9 -23 -14 -29 -11 -12 4 -36
-42 -26 -51 13 -14 10 -34 -6 -29 -10 4 -13 2 -8 -5 3 -6 2 -13 -4 -17 -6 -4
-8 -11 -4 -16 3 -5 9 -7 14 -4 5 3 12 0 16 -7 4 -7 4 -10 -1 -6 -4 4 -15 2
-23 -5 -11 -8 -14 -8 -9 0 4 6 3 14 -3 18 -6 4 -8 11 -5 16 10 15 -3 11 -25
-8 -11 -10 -26 -18 -33 -18 -7 0 -10 -9 -9 -20 3 -15 1 -17 -8 -8 -7 6 -19 9
-27 6 -12 -5 -12 -7 -1 -14 10 -7 9 -9 -3 -9 -9 0 -19 -6 -22 -14 -7 -17 16
-39 29 -28 4 4 3 -1 -5 -10 -12 -17 -46 -14 -35 3 3 5 -2 6 -12 2 -15 -5 -15
-7 0 -15 18 -10 22 -38 5 -38 -5 0 -8 4 -5 9 3 5 -1 11 -9 14 -10 4 -12 1 -8
-10 4 -11 2 -14 -5 -9 -8 5 -10 2 -6 -8 3 -9 11 -13 17 -9 6 3 7 1 3 -6 -4 -6
-11 -9 -16 -6 -4 3 -10 2 -13 -2 -2 -5 -2 -2 -1 4 2 7 -7 18 -19 25 -25 14
-52 20 -42 10 4 -4 11 -7 16 -7 5 0 9 -4 8 -10 0 -5 -7 -9 -16 -8 -11 1 -12
-2 -4 -10 7 -7 14 -7 25 2 12 10 14 9 12 -6 -2 -10 -10 -17 -19 -15 -8 1 -19
-3 -23 -9 -4 -7 -3 -9 4 -5 6 3 14 1 18 -5 4 -7 3 -9 -3 -6 -13 8 -23 -14 -19
-40 2 -10 1 -13 -1 -8 -2 6 -12 16 -22 22 -15 10 -22 9 -32 -3 -8 -10 -9 -18
-2 -25 8 -8 13 -7 18 2 6 8 4 10 -5 4 -8 -5 -11 -3 -9 4 7 19 22 15 30 -8 6
-16 5 -19 -8 -14 -10 4 -14 2 -9 -5 3 -6 1 -14 -5 -18 -8 -4 -9 -3 -5 4 7 12
-2 16 -42 14 -14 -1 -20 3 -16 10 4 7 3 8 -5 4 -9 -6 -9 -11 0 -22 7 -8 15
-11 18 -7 3 4 11 9 18 10 13 3 12 -22 -2 -34 -4 -4 -5 -2 0 6 5 9 3 12 -6 9
-8 -3 -23 -1 -34 5 -18 9 -19 9 -6 -6 15 -19 2 -24 -16 -6 -8 8 -13 8 -18 0
-3 -6 -3 -11 2 -10 20 4 24 -2 12 -18 -13 -15 -11 -15 21 1 30 14 32 15 15 1
-11 -9 -19 -24 -17 -33 2 -14 1 -15 -7 -2 -5 8 -13 11 -17 7 -4 -4 1 -17 12
-29 10 -12 14 -18 7 -15 -6 4 -14 1 -16 -5 -4 -10 -6 -10 -6 0 -1 7 -5 11 -11
7 -5 -3 -7 -13 -4 -23 5 -14 3 -14 -6 2 -7 10 -8 21 -4 25 14 10 16 41 3 41
-7 0 -10 -3 -6 -6 8 -8 -21 -64 -33 -64 -5 0 -7 -8 -4 -17 5 -15 4 -15 -5 -3
-11 17 -21 10 -25 -17 -2 -10 -11 -18 -22 -18 -18 1 -38 -20 -39 -40 0 -5 -8
-9 -18 -9 -19 2 -20 -25 -2 -38 6 -5 6 -8 -2 -8 -6 0 -14 4 -17 9 -3 5 -15 7
-26 4 -16 -4 -18 -8 -8 -27 l11 -21 -23 20 c-13 11 -20 14 -16 7 14 -23 14
-59 0 -59 -14 0 -14 18 -1 28 4 3 0 12 -9 20 -14 11 -16 11 -10 0 5 -8 3 -17
-5 -22 -11 -7 -11 -9 -1 -9 7 0 11 -4 7 -10 -3 -5 -13 -7 -23 -4 -14 5 -14 4
-3 -4 8 -6 16 -23 18 -39 1 -17 -1 -22 -5 -13 -4 8 -11 16 -17 17 -5 1 -19 4
-30 8 -18 6 -18 5 -3 -5 16 -10 15 -40 -2 -40 -16 0 -81 -68 -71 -74 5 -4 7
-14 4 -23 -5 -12 -3 -14 7 -8 8 5 11 4 6 -3 -4 -6 -13 -9 -22 -5 -11 4 -12 9
-3 19 7 9 8 14 1 14 -13 0 -24 -29 -15 -43 5 -8 2 -8 -8 0 -12 10 -18 10 -29
0 -10 -10 -11 -9 -5 2 6 11 4 13 -9 8 -10 -4 -15 -3 -11 3 6 10 -7 14 -32 11
-6 -1 -14 3 -18 9 -4 6 1 7 11 3 14 -5 15 -3 5 16 -7 12 -16 19 -22 16 -5 -4
-9 -1 -9 5 0 7 6 10 14 7 10 -4 14 0 13 13 -1 10 -5 16 -9 14 -4 -3 -8 0 -8 5
0 6 5 11 11 11 5 0 7 5 3 11 -5 8 -10 6 -16 -5 -5 -9 -6 -21 -3 -26 3 -6 1
-10 -6 -10 -7 0 -10 11 -7 29 2 17 1 28 -4 25 -4 -3 -8 0 -8 6 0 6 -8 10 -17
8 -11 -2 -17 2 -15 10 1 8 -2 11 -9 6 -9 -5 -10 -2 -5 12 6 15 5 16 -5 7 -10
-10 -9 -16 1 -28 10 -12 11 -18 1 -28 -10 -9 -11 -8 -5 7 5 14 3 17 -7 14 -8
-3 -13 -11 -11 -18 3 -11 0 -11 -12 0 -19 15 -20 21 -5 18 6 -2 14 3 17 11 3
10 0 12 -12 8 -10 -4 -15 -3 -11 3 3 6 0 10 -7 10 -8 0 -9 3 -3 8 6 4 11 28
10 54 0 47 -8 55 -18 18 -3 -11 -1 -18 3 -15 5 3 7 -3 6 -12 -2 -9 -9 -19 -17
-21 -11 -3 -11 -1 1 7 13 9 9 15 -10 13 -3 0 -7 9 -7 21 -2 17 0 19 7 7 5 -8
10 -10 10 -4 0 20 -12 23 -37 7 -19 -13 -23 -13 -21 -2 2 8 -4 13 -13 11 -9
-1 -22 12 -32 34 -11 23 -21 33 -30 28 -9 -6 -9 -5 0 7 10 12 10 20 -2 36 -11
15 -11 20 -1 20 7 0 13 -6 14 -14 1 -7 3 -20 4 -28 1 -8 5 -12 10 -9 4 3 4 13
-1 22 -5 9 -7 27 -5 39 2 12 -1 25 -8 29 -7 4 -8 3 -4 -4 13 -22 -5 -34 -24
-17 -14 12 -20 13 -26 4 -5 -8 -3 -10 6 -4 9 6 11 4 5 -5 -5 -8 -4 -11 3 -7 6
5 8 -1 4 -15 l-5 -22 -9 23 c-4 12 -11 20 -16 17 -4 -2 -14 0 -22 5 -12 7 -11
10 7 15 13 4 23 10 23 16 0 5 -8 4 -19 -2 -13 -6 -27 -7 -43 0 l-23 10 24 -3
c15 -1 26 4 28 13 4 13 3 13 -6 0 -8 -11 -11 -12 -11 -2 0 7 -5 10 -12 6 -7
-5 -8 -3 -2 7 13 21 14 39 2 39 -6 0 -7 -8 -4 -17 5 -15 4 -15 -9 1 -8 11 -15
25 -15 31 0 7 -12 17 -27 24 -22 10 -24 10 -15 -1 6 -8 7 -19 3 -27 -6 -9 -11
-10 -15 -2 -4 6 -2 11 4 11 6 0 2 14 -10 30 -12 17 -27 30 -33 30 -8 0 -7 -4
2 -9 8 -5 16 -20 18 -33 2 -17 1 -19 -6 -8 -5 8 -7 18 -5 22 5 8 -10 12 -31 9
-5 -1 1 9 15 21 14 12 18 19 10 16 -23 -9 -46 -15 -37 -10 4 2 3 10 -3 17 -8
10 -8 15 1 21 8 5 9 3 4 -6 -6 -9 -4 -11 5 -5 9 5 11 4 6 -3 -5 -8 -1 -10 9
-6 14 6 13 8 -4 20 -12 9 -18 22 -16 34 5 24 1 25 -16 3 -9 -11 -10 -14 -2 -9
9 5 11 2 7 -8 -3 -9 -10 -16 -16 -16 -5 0 -7 4 -3 9 3 6 -4 15 -16 22 -20 10
-21 9 -15 -7 6 -18 5 -18 -9 0 -8 11 -15 16 -15 10 0 -5 -5 -1 -11 9 -6 9 -15
15 -20 12 -5 -4 -6 -11 -3 -17 4 -7 2 -8 -5 -4 -9 6 -9 11 0 22 7 9 8 14 1 14
-12 0 -10 26 3 37 4 4 5 2 1 -4 -4 -8 -2 -11 6 -10 7 2 10 2 6 0 -5 -3 -8 -9
-8 -15 0 -6 7 -5 16 3 14 12 14 14 -1 25 -9 7 -23 10 -31 7 -11 -4 -12 0 -5
18 5 13 14 23 21 21 6 -1 9 2 5 8 -4 6 -12 5 -25 -2 -10 -7 -16 -16 -13 -22 4
-5 1 -6 -6 -2 -9 6 -9 12 3 25 14 15 13 17 -4 17 -10 0 -18 -4 -17 -9 1 -5 -5
-12 -13 -14 -9 -3 -11 -1 -5 4 13 10 16 43 4 43 -5 0 -9 -7 -9 -15 0 -8 -5
-15 -11 -15 -5 0 -8 4 -5 9 3 4 -3 16 -14 26 -10 9 -16 24 -13 33 4 14 3 14
-5 3 -7 -10 -6 -22 6 -40 9 -14 12 -23 7 -19 -4 4 -14 3 -21 -3 -8 -7 -14 -7
-19 1 -4 6 -3 9 2 8 8 -3 13 5 13 23 0 5 -6 7 -12 3 -9 -5 -9 -3 1 9 7 9 11
26 8 36 -3 11 -2 22 2 24 3 2 1 2 -6 1 -18 -4 -22 20 -5 32 12 9 12 13 2 19
-8 5 -11 4 -7 -2 4 -6 0 -13 -8 -17 -8 -3 -17 -1 -20 4 -4 6 -12 10 -18 10 -7
0 -1 -10 13 -21 21 -17 22 -19 3 -10 -26 13 -36 14 -29 3 3 -5 -1 -9 -9 -9
-10 0 -12 4 -5 12 7 8 7 20 0 36 -10 23 -10 23 -6 2 2 -13 -1 -26 -6 -30 -7
-3 -8 -1 -4 5 4 7 3 12 -3 12 -6 0 -9 14 -7 32 4 30 3 31 -11 13 -14 -19 -14
-19 -11 9 2 18 -2 30 -10 32 -7 1 -8 0 -2 -3 5 -2 8 -9 5 -13 -3 -5 -17 2 -30
16 -25 25 -33 40 -15 29 6 -3 7 1 4 9 -3 9 -10 16 -16 16 -5 0 -6 -4 -3 -10 3
-5 0 -10 -7 -11 -7 0 -20 -2 -29 -4 -9 -1 -16 4 -16 11 0 8 4 14 9 14 4 0 8
-5 8 -11 0 -5 5 -7 11 -4 6 5 4 12 -8 20 -13 10 -20 10 -25 2 -4 -7 -8 -506
-8 -1110 l0 -1097 1295 0 1295 0 0 1230 0 1230 -55 0 c-51 0 -60 -5 -57 -32 1
-3 -5 -9 -14 -12 -12 -4 -12 -2 -4 14 5 10 10 20 10 23 0 8 -31 3 -37 -6z m43
-52 c-8 -8 -18 -15 -22 -15 -3 0 -1 7 6 15 7 8 17 15 22 15 5 0 3 -7 -6 -15z
m19 -25 c-3 -5 -12 -10 -18 -10 -7 0 -6 4 3 10 19 12 23 12 15 0z m-125 -61
c0 -5 -6 -9 -13 -9 -8 0 -14 6 -14 14 0 8 6 12 14 9 7 -3 13 -9 13 -14z m40
-17 c0 -4 -9 -8 -19 -8 -11 0 -17 4 -15 8 3 4 12 8 20 8 8 0 14 -4 14 -8z
m-83 -72 c-1 -11 -5 -20 -9 -20 -3 0 -6 9 -5 20 1 11 5 20 9 20 3 0 6 -9 5
-20z m-67 -64 c0 -2 -9 -6 -20 -9 -11 -3 -18 -1 -14 4 5 9 34 13 34 5z m-2149
-69 c-10 -9 -11 -8 -5 6 3 10 9 15 12 12 3 -3 0 -11 -7 -18z m33 -12 c-4 -8
-11 -12 -16 -9 -6 4 -5 10 3 15 19 12 19 11 13 -6z m1946 -39 c0 -8 -7 -16
-15 -20 -13 -4 -14 -2 -5 14 13 23 20 26 20 6z m-1846 -29 c14 -11 16 -18 9
-32 -7 -12 -13 -14 -17 -6 -4 6 -2 11 3 11 6 0 11 5 11 10 0 6 -6 10 -14 10
-8 0 -18 5 -21 10 -9 14 8 12 29 -3z m1776 -74 c0 -5 -12 -16 -26 -27 -26 -18
-26 -18 -15 2 9 17 19 25 39 31 1 1 2 -2 2 -6z m0 -37 c0 -2 -7 -7 -16 -10 -8
-3 -12 -2 -9 4 6 10 25 14 25 6z m-70 -25 c0 -9 -24 -21 -41 -21 -6 0 -7 5 -4
10 4 6 11 8 16 5 5 -4 9 -1 9 4 0 6 5 11 10 11 6 0 10 -4 10 -9z m-40 -101 c0
-5 -5 -10 -11 -10 -5 0 -7 5 -4 10 3 6 8 10 11 10 2 0 4 -4 4 -10z m-1257
-194 c4 -10 1 -13 -8 -9 -8 3 -12 9 -9 14 7 12 11 11 17 -5z m847 -166 c-12
-8 -12 -10 -1 -10 8 0 12 -2 9 -5 -3 -3 -13 -2 -22 1 -14 5 -15 9 -4 15 7 5
18 9 23 9 6 0 3 -5 -5 -10z m0 -37 c0 -3 -7 -3 -15 1 -18 7 -20 -5 -3 -22 7
-7 9 -12 4 -12 -17 0 -35 27 -24 38 10 10 38 6 38 -5z m-133 -128 c0 -20 -4
-19 -17 5 -8 15 -8 18 3 14 8 -3 14 -11 14 -19z m-327 -38 c0 -7 -4 -6 -10 3
-8 12 -10 12 -10 1 0 -8 -3 -12 -6 -8 -9 9 6 28 17 22 5 -4 9 -12 9 -18z m190
-67 c0 -5 -5 -10 -11 -10 -5 0 -7 5 -4 10 3 6 8 10 11 10 2 0 4 -4 4 -10z"/>
<path d="M97 2199 c7 -7 15 -10 18 -7 3 3 -2 9 -12 12 -14 6 -15 5 -6 -5z"/>
<path d="M95 2170 c3 -5 8 -10 11 -10 2 0 4 5 4 10 0 6 -5 10 -11 10 -5 0 -7
-4 -4 -10z"/>
<path d="M2030 2010 c8 -5 20 -10 25 -10 6 0 3 5 -5 10 -8 5 -19 10 -25 10 -5
0 -3 -5 5 -10z"/>
<path d="M304 1962 c4 -3 14 -7 22 -8 9 -1 13 0 10 4 -4 3 -14 7 -22 8 -9 1
-13 0 -10 -4z"/>
<path d="M1930 1939 c0 -5 5 -7 10 -4 6 3 10 8 10 11 0 2 -4 4 -10 4 -5 0 -10
-5 -10 -11z"/>
<path d="M456 1818 c3 -5 10 -6 15 -3 13 9 11 12 -6 12 -8 0 -12 -4 -9 -9z"/>
<path d="M426 1800 c6 -6 20 -12 32 -15 12 -2 28 -7 35 -11 6 -4 9 -4 5 1 -4
4 -1 13 8 19 13 10 13 12 -5 12 -11 0 -18 -4 -15 -8 2 -4 -5 -6 -16 -5 -11 1
-20 5 -20 9 0 4 -8 8 -17 8 -12 0 -14 -3 -7 -10z"/>
<path d="M1750 1720 c0 -5 5 -10 10 -10 6 0 10 5 10 10 0 6 -4 10 -10 10 -5 0
-10 -4 -10 -10z"/>
<path d="M1510 1520 c-13 -8 -12 -10 3 -10 9 0 17 5 17 10 0 12 -1 12 -20 0z"/>
<path d="M1543 1514 c0 -7 6 -10 14 -7 7 3 13 8 13 12 0 4 -6 8 -13 8 -8 0
-14 -6 -14 -13z"/>
<path d="M1493 1479 c-1 -10 6 -20 15 -24 9 -3 13 -3 10 1 -4 4 -3 14 2 23 6
13 4 17 -9 17 -9 0 -18 -8 -18 -17z"/>
<path d="M826 1408 c17 -33 20 -34 20 -9 0 11 -4 17 -8 15 -4 -3 -8 -1 -8 5 0
5 6 11 13 14 6 3 2 4 -10 4 -20 -1 -21 -3 -7 -29z"/>
<path d="M861 1410 c-1 -21 16 -46 26 -37 4 5 3 11 -3 15 -6 4 -14 14 -17 22
-5 13 -5 13 -6 0z"/>
<path d="M1386 1381 c-3 -4 6 -7 19 -7 14 0 22 2 19 5 -8 8 -34 10 -38 2z"/>
<path d="M1345 1360 c-3 -6 1 -7 9 -4 18 7 21 14 7 14 -6 0 -13 -4 -16 -10z"/>
<path d="M956 1313 c-6 -14 -5 -15 5 -6 7 7 10 15 7 18 -3 3 -9 -2 -12 -12z"/>
<path d="M966 1295 c-11 -8 -15 -15 -9 -15 6 0 16 7 23 15 16 19 11 19 -14 0z"/>
<path d="M1308 1263 c7 -3 16 -2 19 1 4 3 -2 6 -13 5 -11 0 -14 -3 -6 -6z"/>
<path d="M1242 1234 c-7 -8 -18 -11 -24 -8 -7 4 -8 2 -4 -4 4 -6 14 -8 24 -5
15 6 14 3 -2 -16 -17 -18 -17 -21 -3 -15 16 6 21 18 18 38 -1 5 5 6 13 3 9 -4
18 -1 22 6 4 7 4 9 -1 5 -4 -4 -13 -4 -19 1 -7 6 -16 4 -24 -5z"/>
<path d="M1105 1159 c-4 -6 -5 -12 -2 -15 2 -3 7 2 10 11 7 17 1 20 -8 4z"/>
<path d="M1170 1140 c-9 -6 -10 -10 -3 -10 6 0 15 5 18 10 8 12 4 12 -15 0z"/>
<path d="M1146 1108 c3 -5 10 -6 15 -3 13 9 11 12 -6 12 -8 0 -12 -4 -9 -9z"/>
</g>
</svg>
